<svg width="30" height="30" viewBox="0 0 30 30" fill="none" xmlns="http://www.w3.org/2000/svg">
<path d="M29.3951 8.83822L29.3954 8.8429C29.5349 11.3009 29.5349 18.6991 29.3954 21.1571L29.3952 21.1604C29.2779 23.5012 28.7487 25.487 27.1182 27.1178L27.1176 27.1184C25.4874 28.7552 23.5028 29.2843 21.1637 29.3951L21.1637 29.3951L21.1591 29.3954C18.7016 29.5349 11.2984 29.5349 8.84094 29.3954L8.83765 29.3952C6.49809 29.2779 4.51867 28.7488 2.88108 27.1171C1.24468 25.4865 0.715618 23.5015 0.604872 21.1618L0.604607 21.1571C0.465131 18.6991 0.465131 11.2942 0.604607 8.8362L0.604618 8.8362L0.604783 8.83291C0.72218 6.49096 1.24514 4.50631 2.88108 2.87622C4.51846 1.24471 6.50423 0.715637 8.83633 0.60487L8.83633 0.604892L8.84094 0.60463C11.2984 0.465123 18.7016 0.465123 21.1591 0.604641L21.1624 0.604806C23.5026 0.722171 25.4879 1.25149 27.1182 2.88224L27.1189 2.88292C28.7553 4.51347 29.2844 6.49854 29.3951 8.83822ZM24.0288 27.1595L24.0305 27.1588C25.4753 26.5793 26.587 25.4681 27.1601 24.0279C27.5887 22.9506 27.7377 21.1996 27.7901 19.5174C27.8281 18.2959 27.8155 17.0525 27.8054 16.0516C27.8014 15.6583 27.7978 15.3024 27.7978 15C27.7978 14.6976 27.8014 14.3417 27.8054 13.9485C27.8155 12.9482 27.8281 11.7059 27.7901 10.4851C27.7376 8.80346 27.5886 7.05295 27.1603 5.97268L27.1596 5.97091C26.5802 4.52592 25.4693 3.41388 24.0293 2.8407L24.0279 2.84016C22.9517 2.41542 21.2019 2.26632 19.52 2.21307C18.2895 2.17411 17.0376 2.18612 16.0331 2.19575C15.6485 2.19944 15.3003 2.20278 15.0033 2.20278C14.701 2.20278 14.3452 2.19918 13.9521 2.1952C12.952 2.18507 11.71 2.17249 10.4894 2.21055C8.80818 2.26297 7.05801 2.41202 5.97793 2.84049L5.97792 2.84049L5.97616 2.84119C4.53142 3.42069 3.41965 4.53192 2.84663 5.97214L2.84609 5.9735C2.42146 7.04996 2.27239 8.80004 2.21916 10.4823C2.18021 11.7131 2.19221 12.9653 2.20184 13.97C2.20553 14.3547 2.20887 14.703 2.20887 15C2.20887 15.3024 2.20527 15.6583 2.20129 16.0515C2.19116 17.0518 2.17859 18.2941 2.21664 19.5149C2.26905 21.1965 2.41807 22.9471 2.84641 24.0273L2.84712 24.0291C3.42646 25.4741 4.53743 26.5861 5.97738 27.1593L5.97875 27.1598C7.05502 27.5846 8.80476 27.7337 10.4867 27.7869C11.7172 27.8259 12.9691 27.8139 13.9736 27.8042C14.3582 27.8006 14.7064 27.7972 15.0033 27.7972C15.3057 27.7972 15.6615 27.8008 16.0546 27.8048C17.0547 27.8149 18.2967 27.8275 19.5173 27.7894C21.1985 27.737 22.9487 27.588 24.0288 27.1595ZM7.81344 15C7.81344 11.0185 11.023 7.80838 15.0033 7.80838C18.9837 7.80838 22.1933 11.0185 22.1933 15C22.1933 18.9815 18.9837 22.1916 15.0033 22.1916C11.023 22.1916 7.81344 18.9815 7.81344 15ZM9.5039 15C9.5039 18.0345 11.9768 20.5006 15.0033 20.5006C18.0299 20.5006 20.5028 18.0345 20.5028 15C20.5028 11.966 18.037 9.49944 15.0033 9.49944C11.9697 9.49944 9.5039 11.966 9.5039 15ZM24.3015 6.99375C24.3015 7.71393 23.7233 8.2878 23.0078 8.2878C22.2881 8.2878 21.7142 7.70967 21.7142 6.99375C21.7142 6.27905 22.2935 5.69971 23.0078 5.69971C23.7221 5.69971 24.3015 6.27905 24.3015 6.99375Z" fill="#3F3930" stroke="#3F3930"/>
</svg>
