<svg width="1888" height="6776" viewBox="0 0 1888 6776" fill="none" xmlns="http://www.w3.org/2000/svg">
<path d="M973 6776C973 6637.5 128 6683 128 6364C128 6071.7 478 5999.5 672 5999.5C866 5999.5 1014 5980.5 1066 5668C1118 5355.5 1498 5675.5 1721 5467C1944 5258.5 1642 5079.5 1627.5 4908C1605.75 4650.76 1438.5 4812 1066 4737.5C693.5 4663 984 5109.5 448.5 5080C20.0999 5056.4 85.83 4797.5 205.5 4674C330.5 4545 470.012 4580.62 386 4421C331 4316.5 203.5 4441.5 263 4143.5C322.5 3845.5 1166.19 4171.33 1435 4119C1622.5 4082.5 1673 4059 1721 3924.5C1829.11 3621.56 792 3794.5 448.5 3647C302.333 3603.83 161.719 3486.03 136 3315C116 3182 121.213 2729.21 765.5 2909C1419.5 3091.5 1230 2825 1404 2721.5C1561.83 2627.62 1600.25 2719.62 1734 2530.5C1812.5 2419.5 1754.5 2152.5 1466.5 2121.5C1000.5 2071.34 27.4999 2150 27.4999 1703.5C20.5 1444.5 17.5024 1048 567 1076.5C1261 1112.5 1389.21 1158.49 1602 1093.5C1972 980.5 2001.5 218.5 1573.5 156.5C1161.29 96.787 939.832 268.037 654 281.5C378 294.5 124.333 92 0.5 1" stroke="#3F3930"/>
</svg>
